<?xml version="1.0" encoding="UTF-8" standalone="no"?>
<!-- Created with Inkscape (http://www.inkscape.org/) -->

<svg
   xmlns:dc="http://purl.org/dc/elements/1.1/"
   xmlns:cc="http://creativecommons.org/ns#"
   xmlns:rdf="http://www.w3.org/1999/02/22-rdf-syntax-ns#"
   xmlns:svg="http://www.w3.org/2000/svg"
   xmlns="http://www.w3.org/2000/svg"
   xmlns:sodipodi="http://sodipodi.sourceforge.net/DTD/sodipodi-0.dtd"
   xmlns:inkscape="http://www.inkscape.org/namespaces/inkscape"
   id="svg2"
   version="1.1"
   inkscape:version="0.48.2 r9819"
   width="405"
   height="495"
   xml:space="preserve"
   sodipodi:docname="cryptocat_08282013.pdf"><metadata
     id="metadata8"><rdf:RDF><cc:Work
         rdf:about=""><dc:format>image/svg+xml</dc:format><dc:type
           rdf:resource="http://purl.org/dc/dcmitype/StillImage" /><dc:title></dc:title></cc:Work></rdf:RDF></metadata><defs
     id="defs6"><clipPath
       clipPathUnits="userSpaceOnUse"
       id="clipPath18"><path
         d="M 0,0 324,0 324,396 0,396 0,0 z"
         id="path20" /></clipPath><clipPath
       clipPathUnits="userSpaceOnUse"
       id="clipPath38"><path
         d="M 0,0 324,0 324,396 0,396 0,0 z"
         id="path40" /></clipPath><clipPath
       clipPathUnits="userSpaceOnUse"
       id="clipPath54"><path
         d="M 0,0 324,0 324,396 0,396 0,0 z"
         id="path56" /></clipPath></defs><sodipodi:namedview
     pagecolor="#ffffff"
     bordercolor="#666666"
     borderopacity="1"
     objecttolerance="10"
     gridtolerance="10"
     guidetolerance="10"
     inkscape:pageopacity="0"
     inkscape:pageshadow="2"
     inkscape:window-width="640"
     inkscape:window-height="480"
     id="namedview4"
     showgrid="false"
     inkscape:zoom="0.47676768"
     inkscape:cx="202.5"
     inkscape:cy="247.5"
     inkscape:window-x="0"
     inkscape:window-y="0"
     inkscape:window-maximized="0"
     inkscape:current-layer="g10" /><g
     id="g10"
     inkscape:groupmode="layer"
     inkscape:label="cryptocat_08282013"
     transform="matrix(1.25,0,0,-1.25,0,495)"><path
       d="M 0,0 324,0 324,396 0,396 0,0 z"
       style="fill:#bfe4f5;fill-opacity:1;fill-rule:nonzero;stroke:none"
       id="path12" /><g
       id="g14"><g
         id="g16"
         clip-path="url(#clipPath18)"><g
           id="g22"
           transform="translate(24.9883,362.6569)"><path
             d="m 0,0 c 0,0 -6,0 -6,-6 l 0,-325.2 c 0,0 0,-6 6,-6 l 275.012,0 c 0,0 6,0 6,6 l 0,325.2 c 0,0 0,6 -6,6 L 0,0 z"
             style="fill:#bd1f38;fill-opacity:1;fill-rule:nonzero;stroke:none"
             id="path24" /></g></g></g><text
       transform="matrix(1,0,0,-1,24.9883,337.4303)"
       id="text26"><tspan
         style="fill:#bd1f38;fill-opacity:1;fill-rule:nonzero;stroke:none;font-family:Monda;font-variant:normal;font-weight:bold;font-stretch:normal;font-size:16;writing-mode:lr;-inkscape-font-specification:Monda-Bold"
         x="0 11.152 19.9376 28.2416 35.8416 39.7136 48.7216 58.3536 67.5536 71.4256 80.4336 84.9456 94.5776 103.8736 112.6896 119.0256 128.2576 134.5936 139.1056 148.7376 154.9296 162.5296 168.3696 172.2416 181.4096 191.0416 195.5536 203.1536 207.0256 211.5376 219.304"
         y="0"
         sodipodi:role="line"
         id="tspan28">Keys and Fingerprints: This is </tspan></text>
<text
       transform="matrix(1,0,0,-1,24.9883,318.2303)"
       id="text30"><tspan
         style="fill:#bd1f38;fill-opacity:1;fill-rule:nonzero;stroke:none;font-family:Monda;font-variant:normal;font-weight:bold;font-stretch:normal;font-size:16;writing-mode:lr;-inkscape-font-specification:Monda-Bold"
         x="0 8.808 23.448 32.68 41.736 48.072 54.264 63.272 72.904"
         y="0"
         sodipodi:role="line"
         id="tspan32">Important</tspan></text>
<g
       id="g34"><g
         id="g36"
         clip-path="url(#clipPath38)"><g
           id="g42"
           transform="translate(25,369.5431)"><path
             d="m 0,0 c 0,0 -6,0 -6,-6 l 0,-323.2 c 0,0 0,-6 6,-6 l 267.082,0 c 0,0 6,0 6,6 l 0,323.2 c 0,0 0,6 -6,6 L 0,0 z"
             style="fill:#ffffff;fill-opacity:1;fill-rule:nonzero;stroke:none"
             id="path44" /></g></g></g><text
       transform="matrix(1,0,0,-1,55.3515,343.3166)"
       id="text46"><tspan
         style="fill:#bd1f38;fill-opacity:1;fill-rule:nonzero;stroke:none;font-family:Monda;font-variant:normal;font-weight:bold;font-stretch:normal;font-size:16;writing-mode:lr;-inkscape-font-specification:Monda-Bold"
         x="0 15.104 24.736 33.744 39.936 43.808 55.296 61.632 69.936 79.168 85.36 94.416 102.904 111.912 118.104 121.976 133.8 142.856 151.672 159.272 168.904 175.256 181.448 185.32 197.144"
         y="0"
         sodipodi:role="line"
         id="tspan48">What Cryptocat Doesn’t Do</tspan></text>
<g
       id="g50"><g
         id="g52"
         clip-path="url(#clipPath54)"><g
           id="g58"
           transform="translate(25,369.5431)"><path
             d="m 0,0 c 0,0 -6,0 -6,-6 l 0,-323.2 c 0,0 0,-6 6,-6 l 267.082,0 c 0,0 6,0 6,6 l 0,323.2 c 0,0 0,6 -6,6 L 0,0 z"
             style="fill:none;stroke:#bd1f38;stroke-opacity:1;stroke-width:2;stroke-linecap:butt;stroke-linejoin:miter;stroke-miterlimit:4;stroke-dasharray:none"
             id="path60" /></g></g></g><g
       id="g62"
       transform="translate(27,333.4226)"><path
         d="M 0,0 267.4,0"
         style="fill:none;stroke:#bd1f38;stroke-opacity:1;stroke-width:1;stroke-linecap:butt;stroke-linejoin:miter;stroke-miterlimit:4;stroke-dasharray:none"
         id="path64" /></g><text
       transform="matrix(1,0,0,-1,25.9067,312.7681)"
       id="text66"><tspan
         style="fill:#231f20;fill-opacity:1;fill-rule:nonzero;stroke:none;font-family:Monda;font-variant:normal;font-weight:normal;font-stretch:normal;font-size:10;writing-mode:lr;-inkscape-font-specification:Monda-Regular"
         x="0 9.9 15.79 18.6 21.9 27.45 34.1 41.11 44.89 50.25 56 60 65.63 70.95 76.57 80.57 87.22 92.84 95.65 104.63 109.37 116.02 120.02 125.65 132.3 137.93 141.69 145.45 151 154.78 161.43 166.17 170.17 173.95 179.58 185.47 191.16 194.46 199.82 206.47 212.02 217.91 223.23 227.01 232.37 238.12 242.12 247.67 253.43 256.56"
         y="0"
         sodipodi:role="line"
         id="tspan68">While Cryptocat aims to offer strongly encrypted, </tspan></text>
<text
       transform="matrix(1,0,0,-1,25.9067,300.7681)"
       id="text70"><tspan
         style="fill:#231f20;fill-opacity:1;fill-rule:nonzero;stroke:none;font-family:Monda;font-variant:normal;font-weight:normal;font-stretch:normal;font-size:10;writing-mode:lr;-inkscape-font-specification:Monda-Regular"
         x="0 5.75 9.53 12.34 17.63 23.25 27.25 32.8 35.67 41.1 46.99 51.73 55.73 61.35 67.24 71.24 74.11 82.69 88.24 92.98 97.72 103.34 109.03 111.84 117.73 123.42 126.45 129.32 132.13 136.13 139.78 144.52 147.39 150.2 159.18 164.93 170.56 174.34 178.34 183.96 189.85 193.85 196.72 200.72 206.35 209.22 215.11 220.74 224.74 230.29 233.16 240.94 246.83 252.45 256.551"
         y="0"
         sodipodi:role="line"
         id="tspan72">private Instant Messaging, it’s important to note what </tspan></text>
<text
       transform="matrix(1,0,0,-1,25.9067,288.7681)"
       id="text74"><tspan
         style="fill:#231f20;fill-opacity:1;fill-rule:nonzero;stroke:none;font-family:Monda;font-variant:normal;font-weight:normal;font-stretch:normal;font-size:10;writing-mode:lr;-inkscape-font-specification:Monda-Regular"
         x="0 7.01 10.79 16.15 21.9 25.9 31.53 36.85 42.47 46.47 48.87 54.63 60.26 65.81 70.55 72.95 78.84 84.47 88.47 90.87 96.62 100.4 106.03 110.03 115.58 120.9 124.9 127.3 132.66 138.29 144.17 146.57 152.19 157.88 163.5 166.31 172.2 176.94 180.94"
         y="0"
         sodipodi:role="line"
         id="tspan76">Cryptocat does not protect you against:</tspan></text>
<text
       transform="matrix(1,0,0,-1,25.9067,264.7681)"
       id="text78"><tspan
         style="fill:#bd1f38;fill-opacity:1;fill-rule:nonzero;stroke:none;font-family:Monda;font-variant:normal;font-weight:bold;font-stretch:normal;font-size:10;writing-mode:lr;-inkscape-font-specification:Monda-Bold"
         x="0 7.175 11.135 16.325 22.095 25.965 31.625 36.935 42.565 46.435 55.445 61.195 66.855 72.365 77.115 86.125 92.145 97.805 101.675 110.685 116.315 122.335 127.995 133.989 139.179 148.329 151.149 155.469 160.979 169.989 175.179 180.839 186.829"
         y="0"
         sodipodi:role="line"
         id="tspan80">Cryptocat does not anonymize you:</tspan></text>
<text
       transform="matrix(1,0,0,-1,225.3433,264.7681)"
       id="text82"><tspan
         style="fill:#231f20;fill-opacity:1;fill-rule:nonzero;stroke:none;font-family:Monda;font-variant:normal;font-weight:normal;font-stretch:normal;font-size:10;writing-mode:lr;-inkscape-font-specification:Monda-Regular"
         x="0 9.9 15.79 18.6 21.9 27.45 36.39 41.75 47.38 53.26 57.137"
         y="0"
         sodipodi:role="line"
         id="tspan84">While your </tspan></text>
<text
       transform="matrix(1,0,0,-1,25.9066,252.7681)"
       id="text86"><tspan
         style="fill:#231f20;fill-opacity:1;fill-rule:nonzero;stroke:none;font-family:Monda;font-variant:normal;font-weight:normal;font-stretch:normal;font-size:10;writing-mode:lr;-inkscape-font-specification:Monda-Regular"
         x="0 5.32 10.95 19.93 28.91 34.79 40.68 43.49 48.81 54.43 58.43 61.24 66.87 72.76 77.5 79.05 84.67 88.45 94 95.55 101.1 106.99 112.31 116.09 121.45 127.2 131.2 136.75 142.51 145.54 147.09 152.45 158.08 163.96 167.74 169.29 172.1 177.86 183.41 189.3 193.3 196.11 200.11 205.47 207.02 212.34 217.96 223.85 225.4 230.14 234.14 236.95 240.25 243.55 245.1 250.88 256.534"
         y="0"
         sodipodi:role="line"
         id="tspan88">communications are encrypted, your identity can still be </tspan></text>
<text
       transform="matrix(1,0,0,-1,25.9066,240.7681)"
       id="text90"><tspan
         style="fill:#231f20;fill-opacity:1;fill-rule:nonzero;stroke:none;font-family:Monda;font-variant:normal;font-weight:normal;font-stretch:normal;font-size:10;writing-mode:lr;-inkscape-font-specification:Monda-Regular"
         x="0 4 7.78 13.4 18.72 24.27 30.03 32.8 37.54 40.35 46.24 51.56 57.11 59.88 66.89 70.67 76.03 81.78 85.78 91.41 96.73 102.35 106.35 109.12 114.88 120.51 126.06 130.8 133.57 139.46 145.09 149.09 151.86 160.84 166.46 171.2 176.725 179.495 184.855 190.485 196.365 200.145 202.915 208.345 214.715 217.485 223.105 228.865 234.625 238.405 243.955 248.695 253.435 256.501"
         y="0"
         sodipodi:role="line"
         id="tspan92">traced since Cryptocat does not mask your IP address. </tspan></text>
<text
       transform="matrix(1,0,0,-1,25.9066,228.7681)"
       id="text94"><tspan
         style="fill:#231f20;fill-opacity:1;fill-rule:nonzero;stroke:none;font-family:Monda;font-variant:normal;font-weight:normal;font-stretch:normal;font-size:10;writing-mode:lr;-inkscape-font-specification:Monda-Regular"
         x="0 5.56 11.19 14.97 17.37 22.99 28.88 34.51 40.367 45.727 54.707 57.517 62.127 67.747 71.747 74.557 80.187 86.077 89.107 91.507 99.287 104.837 107.237 113.127 115.937 121.627 127.517 130.817 136.177 138.577 142.357 147.907 153.227 158.857 167.837 176.817 182.367 188.257 194.017 196.417 202.297 207.037 209.847 215.737 221.427 223.827 229.547 235.177 238.957"
         y="0"
         sodipodi:role="line"
         id="tspan96">For anonymization, we highly recommend using Tor.</tspan></text>
<text
       transform="matrix(1,0,0,-1,25.9066,204.7681)"
       id="text98"><tspan
         style="fill:#bd1f38;fill-opacity:1;fill-rule:nonzero;stroke:none;font-family:Monda;font-variant:normal;font-weight:bold;font-stretch:normal;font-size:10;writing-mode:lr;-inkscape-font-specification:Monda-Bold"
         x="0 7.175 11.135 16.325 22.095 25.965 31.625 36.935 42.565 46.435 50.415 56.165 61.825 67.335 72.085 76.065 82.085 87.745 91.615 95.595 101.365 105.325 110.985 114.855 120.365 125.67 129.54 133.52 139.15 144.96 150.59 153.41 159.43 164.18 168.05 172.03 177.78 183.271 188.461 192.441 195.801 201.461 207.271 213.081 218.591 222.551 227.301"
         y="0"
         sodipodi:role="line"
         id="tspan100">Cryptocat does not protect against key loggers:</tspan></text>
<text
       transform="matrix(1,0,0,-1,260.8144,204.7681)"
       id="text102"><tspan
         style="fill:#231f20;fill-opacity:1;fill-rule:nonzero;stroke:none;font-family:Monda;font-variant:normal;font-weight:normal;font-stretch:normal;font-size:10;writing-mode:lr;-inkscape-font-specification:Monda-Regular"
         x="0 6.277 11.907 17.787 21.664"
         y="0"
         sodipodi:role="line"
         id="tspan104">Your </tspan></text>
<text
       transform="matrix(1,0,0,-1,25.9066,192.7681)"
       id="text106"><tspan
         style="fill:#231f20;fill-opacity:1;fill-rule:nonzero;stroke:none;font-family:Monda;font-variant:normal;font-weight:normal;font-stretch:normal;font-size:10;writing-mode:lr;-inkscape-font-specification:Monda-Regular"
         x="0 8.98 14.53 19.27 24.01 29.63 35.32 40.87 45.61 49.52 55.14 58.92 64.47 68.38 73.93 79.82 85.14 88.92 94.28 100.03 104.03 109.58 115.34 119.25 124.87 129.61 133.52 137.52 143.41 148.945 154.305 158.215 163.905 169.535 173.445 177.445 183.335 187.115 192.745 198.625 204.315 210.205 214.115 218.115 224.005 229.555 233.465 241.245 244.055 247.835 253.385 256.515"
         y="0"
         sodipodi:role="line"
         id="tspan108">messages are encrypted as they go through the wire, </tspan></text>
<text
       transform="matrix(1,0,0,-1,25.9066,180.7681)"
       id="text110"><tspan
         style="fill:#231f20;fill-opacity:1;fill-rule:nonzero;stroke:none;font-family:Monda;font-variant:normal;font-weight:normal;font-stretch:normal;font-size:10;writing-mode:lr;-inkscape-font-specification:Monda-Regular"
         x="0 5.78 11.66 15.66 17.74 21.74 27.63 33.25 37.25 39.33 45.09 50.72 56.27 61.01 66.9 70.55 74.55 76.63 85.61 91.16 96.78 102.67 104.75 108.75 114.64 120.26 124.26 126.34 131.7 137.33 143.21 146.99 149.07 154.595 160.13 165.49 171.27 176.9 182.52 186.3 192.06 194.14 196.95 201.69 203.77 209.66 215.21 220.53 226.08 230.82 235.56 241.18 244.96 247.77 251.07 256.529"
         y="0"
         sodipodi:role="line"
         id="tspan112">but that doesn’t mean that your keyboard is necessarily </tspan></text>
<text
       transform="matrix(1,0,0,-1,25.9066,168.7681)"
       id="text114"><tspan
         style="fill:#231f20;fill-opacity:1;fill-rule:nonzero;stroke:none;font-family:Monda;font-variant:normal;font-weight:normal;font-stretch:normal;font-size:10;writing-mode:lr;-inkscape-font-specification:Monda-Regular"
         x="0 4.74 10.36 14.12 19.67 22.64 26.72 33.73 37.51 42.87 48.62 52.62 58.25 63.57 69.19 73.19 77.27 83.03 88.66 94.21 98.95 103.03 108.92 114.55 118.55 122.63 128.38 132.16 137.79 141.79 147.34 152.66 156.66 160.74 166.36 172.05 177.67 180.48 186.37 191.11 195.11 199.19 205.08 210.7 214.48 220.24 228.02 233.64 237.42 242.97 247.05 252.68 256.557"
         y="0"
         sodipodi:role="line"
         id="tspan116">safe. Cryptocat does not protect against hardware or </tspan></text>
<text
       transform="matrix(1,0,0,-1,25.9066,156.7681)"
       id="text118"><tspan
         style="fill:#231f20;fill-opacity:1;fill-rule:nonzero;stroke:none;font-family:Monda;font-variant:normal;font-weight:normal;font-stretch:normal;font-size:10;writing-mode:lr;-inkscape-font-specification:Monda-Regular"
         x="0 4.74 10.37 14.13 18.13 25.91 31.53 35.31 40.86 43.89 49.415 54.95 60.31 63.34 66.64 72.27 77.96 83.65 89.2 92.98 97.72 100.75 108.53 114.42 117.23 122.55 128.44 131.47 140.45 143.26 148.95 154.84 158.84 161.87 167.65 173.2 176.23 180.97 186.86 192.49 198.12 203.87 206.68 212.57 218.26 221.29 226.92 232.81 235.84 241.2 246.83 252.71 256.587"
         y="0"
         sodipodi:role="line"
         id="tspan120">software key loggers which might be snooping on your </tspan></text>
<text
       transform="matrix(1,0,0,-1,25.9066,144.7681)"
       id="text122"><tspan
         style="fill:#231f20;fill-opacity:1;fill-rule:nonzero;stroke:none;font-family:Monda;font-variant:normal;font-weight:normal;font-stretch:normal;font-size:10;writing-mode:lr;-inkscape-font-specification:Monda-Regular"
         x="0 5.525 11.06 16.42 22.2 27.83 33.45 37.23 42.99 47.935 52.675 56.675 60.455 66.085 71.61 77.16 81.9 86.845 92.465 98.355 104.115 109.06 113.8 119.35 125.24 131 133.81 139.7 145.39 150.335 154.335 160.225 165.775 174.755 179.7 183.7 189.33 194.28 199.9 205.79 210.735 216.615 222.505 228.265 233.815 238.555 241.365 245.145 250.695 256.554"
         y="0"
         sodipodi:role="line"
         id="tspan124">keyboard strokes and sending them to an undesired </tspan></text>
<text
       transform="matrix(1,0,0,-1,25.9066,132.7681)"
       id="text126"><tspan
         style="fill:#231f20;fill-opacity:1;fill-rule:nonzero;stroke:none;font-family:Monda;font-variant:normal;font-weight:normal;font-stretch:normal;font-size:10;writing-mode:lr;-inkscape-font-specification:Monda-Regular"
         x="0 4 9.89 12.7 16.48 22.24 24.64 30.39 36.01 39.79 43.79 48.953"
         y="0"
         sodipodi:role="line"
         id="tspan128">third party.</tspan></text>
<text
       transform="matrix(1,0,0,-1,25.9066,108.7681)"
       id="text130"><tspan
         style="fill:#bd1f38;fill-opacity:1;fill-rule:nonzero;stroke:none;font-family:Monda;font-variant:normal;font-weight:bold;font-stretch:normal;font-size:10;writing-mode:lr;-inkscape-font-specification:Monda-Bold"
         x="0 7.175 11.135 16.325 22.095 25.965 31.625 36.935 42.565 46.435 53.885 59.635 65.295 70.805 75.555 83.005 89.025 94.685 98.555 106.005 111.775 115.735 121.395 125.265 130.775 136.08 139.95 147.4 153.03 158.84 164.47 167.29 173.31 178.06 181.93 189.38 195.37 201.39 205.26 209.22 215.21 219.96 223.83 231.78 237.44 241.4 245.27 251.264 256.552"
         y="0"
         sodipodi:role="line"
         id="tspan132">Cryptocat does not protect against untrustworthy </tspan></text>
<text
       transform="matrix(1,0,0,-1,25.9066,96.7681)"
       id="text134"><tspan
         style="fill:#bd1f38;fill-opacity:1;fill-rule:nonzero;stroke:none;font-family:Monda;font-variant:normal;font-weight:bold;font-stretch:normal;font-size:10;writing-mode:lr;-inkscape-font-specification:Monda-Bold"
         x="0 5.77 11.28 16.94 22.71 26.07 31.58 35.23"
         y="0"
         sodipodi:role="line"
         id="tspan136">people: </tspan></text>
<text
       transform="matrix(1,0,0,-1,65.364,96.7681)"
       id="text138"><tspan
         style="fill:#231f20;fill-opacity:1;fill-rule:nonzero;stroke:none;font-family:Monda;font-variant:normal;font-weight:normal;font-stretch:normal;font-size:10;writing-mode:lr;-inkscape-font-specification:Monda-Regular"
         x="0 6.355 11.975 15.755 19.755 22.565 28.115 32.855 37.045 42.405 48.035 53.915 57.565 61.345 66.895 71.085 76.405 82.035 87.902 93.192 98.742 102.522 107.262 110.072 115.962 121.652 125.842 133.622 136.432 140.432 146.322 150.512 159.492 165.095 170.455 174.645 179.385 183.385 186.195 189.495 192.795 196.985 200.285 205.835 211.455 217.08"
         y="0"
         sodipodi:role="line"
         id="tspan140">Parties you’re conversing with may still leak </tspan></text>
<text
       transform="matrix(1,0,0,-1,25.9066,84.7681)"
       id="text142"><tspan
         style="fill:#231f20;fill-opacity:1;fill-rule:nonzero;stroke:none;font-family:Monda;font-variant:normal;font-weight:normal;font-stretch:normal;font-size:10;writing-mode:lr;-inkscape-font-specification:Monda-Regular"
         x="0 5.36 10.99 16.87 20.65 22.53 31.51 37.06 41.8 46.54 52.16 57.85 63.4 68.14 70.02 77.8 80.61 84.61 90.5 96.13 102.01 106.01 107.89 113.25 118.88 124.76 128.54 130.42 135.945 141.835 147.465 155.245 158.545 164.095 169.855 175.545 181.095 184.065 185.945 192.955 196.735 202.095 207.845 211.845 217.475 222.795 228.415 232.415 234.295 239.915 242.725 251.705 256.548"
         y="0"
         sodipodi:role="line"
         id="tspan144">your messages without your knowledge. Cryptocat aims </tspan></text>
<text
       transform="matrix(1,0,0,-1,25.9066,72.7681)"
       id="text146"><tspan
         style="fill:#231f20;fill-opacity:1;fill-rule:nonzero;stroke:none;font-family:Monda;font-variant:normal;font-weight:normal;font-stretch:normal;font-size:10;writing-mode:lr;-inkscape-font-specification:Monda-Regular"
         x="0 4 9.63 12.25 21.23 26.85 32.374 37.924 40.544 45.284 51.164 54.944 60.494 63.114 67.114 73.004 78.624 82.624 85.244 90.874 96.764 100.064 105.424 108.044 112.044 117.934 123.484 126.104 131.854 137.474 141.254 145.254 148.064 153.614 158.354 160.974 166.334 171.964 177.844 181.494 185.274 190.824 193.444 197.444 203.064 206.364 211.889 214.699 220.589 226.279 228.899 232.899 238.529 241.149 246.839 252.389 256.491"
         y="0"
         sodipodi:role="line"
         id="tspan148">to make sure that only the parties you’re talking to get </tspan></text>
<text
       transform="matrix(1,0,0,-1,25.9066,60.7681)"
       id="text150"><tspan
         style="fill:#231f20;fill-opacity:1;fill-rule:nonzero;stroke:none;font-family:Monda;font-variant:normal;font-weight:normal;font-stretch:normal;font-size:10;writing-mode:lr;-inkscape-font-specification:Monda-Regular"
         x="0 5.36 10.99 16.87 20.65 22.87 31.85 37.4 42.14 46.88 52.5 58.19 63.74 68.48 71.51 73.73 79.51 85.39 89.39 91.61 95.61 101.5 107.12 111.12 113.34 119.1 124.73 130.28 135.02 140.91 144.56 148.56 150.78 159.76 165.31 170.93 176.82 179.04 183.04 188.93 194.48 199.22 204.77 206.99 212.74 218.36 222.14 226.14 228.95 234.5 239.24 241.46 247.08 250.86 256.514"
         y="0"
         sodipodi:role="line"
         id="tspan152">your messages, but that doesn’t mean these parties are </tspan></text>
<text
       transform="matrix(1,0,0,-1,25.9066,48.7681)"
       id="text154"><tspan
         style="fill:#231f20;fill-opacity:1;fill-rule:nonzero;stroke:none;font-family:Monda;font-variant:normal;font-weight:normal;font-stretch:normal;font-size:10;writing-mode:lr;-inkscape-font-specification:Monda-Regular"
         x="0 5.89 11.44 16.76 22.31 27.05 31.79 37.41 41.19 44 47.3 52.66 55.06 59.06 62.84 68.72 73.46 77.46 85.24 90.87 94.65 98.65 104.508 109.671"
         y="0"
         sodipodi:role="line"
         id="tspan156">necessarily trustworthy.</tspan></text>
</g></svg>